<svg width="200" height="200" viewBox="0 0 200 200" fill="none" xmlns="http://www.w3.org/2000/svg">
<rect width="200" height="200" fill="#9F0013"/>
<path d="M53.7012 78.3594V94H50.5752V78.3594H53.7012ZM57.5039 78.3594H60.2646L63.4551 89.0586L66.6348 78.3594H69.0732L64.626 94H62.2734L57.5039 78.3594ZM56.3867 78.3594H59.0186L59.4268 88.6719V94H56.3867V78.3594ZM67.8701 78.3594H70.5127V94H67.4834V88.6719L67.8701 78.3594ZM78.9346 81.1523L75.5723 94H72.2529L77.1406 78.3594H79.2139L78.9346 81.1523ZM81.5879 94L78.2041 81.1523L77.8926 78.3594H79.998L84.9287 94H81.5879ZM81.7061 88.167V90.7773H74.6484V88.167H81.7061ZM96.8096 85.7822V92.2275C96.5876 92.4639 96.2617 92.7396 95.832 93.0547C95.4095 93.3626 94.8545 93.6348 94.167 93.8711C93.4867 94.1003 92.6559 94.2148 91.6748 94.2148C90.8083 94.2148 90.0205 94.0788 89.3115 93.8066C88.6097 93.5345 88.0046 93.1227 87.4961 92.5713C86.9948 92.0127 86.6117 91.318 86.3467 90.4873C86.0817 89.6494 85.9492 88.6576 85.9492 87.5117V84.8477C85.9492 83.7161 86.0745 82.7314 86.3252 81.8936C86.583 81.0485 86.9554 80.3467 87.4424 79.7881C87.9294 79.2295 88.5094 78.8141 89.1826 78.542C89.863 78.2699 90.6292 78.1338 91.4814 78.1338C92.6559 78.1338 93.6191 78.3307 94.3711 78.7246C95.1302 79.1185 95.7031 79.7021 96.0898 80.4756C96.4837 81.249 96.7201 82.1979 96.7988 83.3223H93.7588C93.7087 82.6634 93.5977 82.1478 93.4258 81.7754C93.2611 81.403 93.0283 81.138 92.7275 80.9805C92.4268 80.8158 92.0365 80.7334 91.5566 80.7334C91.1413 80.7334 90.7796 80.8086 90.4717 80.959C90.1637 81.1022 89.9059 81.3385 89.6982 81.668C89.4906 81.9974 89.3366 82.4199 89.2363 82.9355C89.1361 83.4512 89.0859 84.0814 89.0859 84.8262V87.5117C89.0859 88.2493 89.1432 88.8796 89.2578 89.4023C89.3724 89.9251 89.5407 90.3512 89.7627 90.6807C89.9919 91.0101 90.2783 91.25 90.6221 91.4004C90.973 91.5436 91.3848 91.6152 91.8574 91.6152C92.237 91.6152 92.5413 91.5758 92.7705 91.4971C92.9997 91.4183 93.1823 91.3359 93.3184 91.25C93.4616 91.1569 93.5798 91.0853 93.6729 91.0352V88.1562H91.4277V85.7822H96.8096ZM108.046 91.4004V94H101.246V91.4004H108.046ZM102.224 78.3594V94H99.0762V78.3594H102.224ZM107.133 84.6973V87.2217H101.246V84.6973H107.133ZM108.024 78.3594V80.9697H101.246V78.3594H108.024ZM125.889 78.3594V94H122.849L117.939 84.2139V94H114.953V78.3594H117.95L122.902 88.2529V78.3594H125.889ZM139.413 84.9658V87.5762C139.413 88.679 139.277 89.6458 139.005 90.4766C138.74 91.3001 138.36 91.9912 137.866 92.5498C137.379 93.1012 136.788 93.5166 136.094 93.7959C135.406 94.0752 134.644 94.2148 133.806 94.2148C132.968 94.2148 132.201 94.0752 131.507 93.7959C130.819 93.5166 130.225 93.1012 129.724 92.5498C129.229 91.9912 128.846 91.3001 128.574 90.4766C128.302 89.6458 128.166 88.679 128.166 87.5762V84.9658C128.166 83.8343 128.299 82.846 128.563 82.001C128.828 81.1488 129.212 80.4398 129.713 79.874C130.214 79.3011 130.809 78.8714 131.496 78.585C132.184 78.2913 132.946 78.1445 133.784 78.1445C134.622 78.1445 135.385 78.2913 136.072 78.585C136.76 78.8714 137.354 79.3011 137.855 79.874C138.357 80.4398 138.74 81.1488 139.005 82.001C139.277 82.846 139.413 83.8343 139.413 84.9658ZM136.287 87.5762V84.9443C136.287 84.1995 136.233 83.5658 136.126 83.043C136.019 82.513 135.857 82.0798 135.643 81.7432C135.428 81.4066 135.166 81.1595 134.858 81.002C134.55 80.8444 134.192 80.7656 133.784 80.7656C133.376 80.7656 133.014 80.8444 132.699 81.002C132.391 81.1595 132.13 81.4066 131.915 81.7432C131.707 82.0798 131.55 82.513 131.442 83.043C131.342 83.5658 131.292 84.1995 131.292 84.9443V87.5762C131.292 88.2923 131.346 88.9046 131.453 89.4131C131.561 89.9215 131.722 90.3369 131.937 90.6592C132.151 90.9814 132.413 91.2214 132.721 91.3789C133.036 91.5293 133.397 91.6045 133.806 91.6045C134.207 91.6045 134.561 91.5293 134.869 91.3789C135.184 91.2214 135.446 90.9814 135.653 90.6592C135.861 90.3369 136.019 89.9215 136.126 89.4131C136.233 88.9046 136.287 88.2923 136.287 87.5762ZM147.029 78.3594V94H143.903V78.3594H147.029ZM150.918 78.3594V80.9697H140.09V78.3594H150.918ZM73.2949 104.359V120H70.1475V104.359H73.2949ZM78.1934 111.009V113.608H72.5V111.009H78.1934ZM78.7949 104.359V106.97H72.5V104.359H78.7949ZM91.6211 110.966V113.576C91.6211 114.679 91.485 115.646 91.2129 116.477C90.9479 117.3 90.5684 117.991 90.0742 118.55C89.5872 119.101 88.9964 119.517 88.3018 119.796C87.6143 120.075 86.8516 120.215 86.0137 120.215C85.1758 120.215 84.4095 120.075 83.7148 119.796C83.0273 119.517 82.4329 119.101 81.9316 118.55C81.4375 117.991 81.0544 117.3 80.7822 116.477C80.5101 115.646 80.374 114.679 80.374 113.576V110.966C80.374 109.834 80.5065 108.846 80.7715 108.001C81.0365 107.149 81.4196 106.44 81.9209 105.874C82.4222 105.301 83.0166 104.871 83.7041 104.585C84.3916 104.291 85.1543 104.145 85.9922 104.145C86.8301 104.145 87.5928 104.291 88.2803 104.585C88.9678 104.871 89.5622 105.301 90.0635 105.874C90.5648 106.44 90.9479 107.149 91.2129 108.001C91.485 108.846 91.6211 109.834 91.6211 110.966ZM88.4951 113.576V110.944C88.4951 110.2 88.4414 109.566 88.334 109.043C88.2266 108.513 88.0654 108.08 87.8506 107.743C87.6357 107.407 87.3743 107.16 87.0664 107.002C86.7585 106.844 86.4004 106.766 85.9922 106.766C85.584 106.766 85.2223 106.844 84.9072 107.002C84.5993 107.16 84.3379 107.407 84.123 107.743C83.9154 108.08 83.7578 108.513 83.6504 109.043C83.5501 109.566 83.5 110.2 83.5 110.944V113.576C83.5 114.292 83.5537 114.905 83.6611 115.413C83.7686 115.922 83.9297 116.337 84.1445 116.659C84.3594 116.981 84.6208 117.221 84.9287 117.379C85.2438 117.529 85.6055 117.604 86.0137 117.604C86.4147 117.604 86.7692 117.529 87.0771 117.379C87.3923 117.221 87.6536 116.981 87.8613 116.659C88.069 116.337 88.2266 115.922 88.334 115.413C88.4414 114.905 88.4951 114.292 88.4951 113.576ZM100.935 104.359H104.071V115.102C104.071 116.305 103.849 117.286 103.405 118.045C102.968 118.797 102.363 119.348 101.59 119.699C100.816 120.043 99.932 120.215 98.9365 120.215C97.9339 120.215 97.0423 120.043 96.2617 119.699C95.4811 119.348 94.8724 118.797 94.4355 118.045C94.0059 117.286 93.791 116.305 93.791 115.102V104.359H96.9277V115.102C96.9277 115.782 97.0029 116.305 97.1533 116.67C97.3109 117.035 97.5365 117.286 97.8301 117.422C98.1309 117.551 98.4997 117.615 98.9365 117.615C99.3805 117.615 99.7458 117.551 100.032 117.422C100.326 117.286 100.548 117.035 100.698 116.67C100.856 116.305 100.935 115.782 100.935 115.102V104.359ZM117.413 104.359V120H114.373L109.464 110.214V120H106.478V104.359H109.475L114.427 114.253V104.359H117.413ZM124.03 120H121.27L121.291 117.4H124.03C124.789 117.4 125.38 117.264 125.803 116.992C126.225 116.72 126.522 116.29 126.694 115.703C126.873 115.116 126.963 114.346 126.963 113.394V110.955C126.963 110.232 126.916 109.619 126.823 109.118C126.73 108.61 126.573 108.201 126.351 107.894C126.129 107.578 125.831 107.346 125.459 107.195C125.087 107.045 124.625 106.97 124.073 106.97H121.216V104.359H124.073C124.976 104.359 125.796 104.506 126.533 104.8C127.271 105.093 127.905 105.523 128.435 106.089C128.965 106.647 129.373 107.339 129.659 108.162C129.946 108.986 130.089 109.924 130.089 110.977V113.394C130.089 114.453 129.946 115.392 129.659 116.208C129.373 117.024 128.965 117.715 128.435 118.281C127.912 118.84 127.278 119.266 126.533 119.56C125.788 119.853 124.954 120 124.03 120ZM123.096 104.359V120H119.948V104.359H123.096Z" fill="white"/>
</svg>
